<?xml version="1.0" encoding="UTF-8"?>
<svg id="Layer_1" xmlns="http://www.w3.org/2000/svg" version="1.1" viewBox="0 0 72 72">
  <!-- Generator: Adobe Illustrator 29.3.1, SVG Export Plug-In . SVG Version: 2.1.0 Build 151)  -->
  <defs>
    <style>
      .st0, .st1, .st2 {
        fill: #5c6d42;
      }

      .st0, .st1, .st2, .st3 {
        stroke: #fff;
      }

      .st4 {
        fill: #fff;
      }

      .st1 {
        stroke-miterlimit: 4;
        stroke-width: .3px;
      }

      .st2 {
        stroke-miterlimit: 4;
        stroke-width: .3px;
      }

      .st3 {
        fill: none;
        stroke-width: .3px;
      }
    </style>
  </defs>
  <g id="Layer_2">
    <circle class="st0" cx="38.4" cy="35.3" r="26.4"/>
    <g>
      <path class="st4" d="M29.4,13.9l-1.6.9,1.5,2.7,1.3-.7v.2c0,0-1.2.7-1.2.7l1.6,2.9-.8.4-3.2-5.9,2.4-1.3s0,.2,0,.2Z"/>
      <path class="st4" d="M33.2,19.5l-2.1-6.4.8-.3,2.1,6.4s-.8.3-.8.3Z"/>
      <path class="st4" d="M37.7,11.9l.7,6.7h-.9c0,0-2.8-5.3-2.8-5.3l.6,5.6h-.2s-.6-6-.6-6l-.3-.6h.9c0,0,3.1,5.8,3.1,5.8l-.7-6.2h.2s0,0,0,0Z"/>
      <path class="st4" d="M43.8,15.9c-.4,2.3-1.3,3.3-2.7,3.1-1.4-.2-1.9-1.5-1.5-3.8.4-2.3,1.3-3.3,2.7-3.1,1.3.2,1.8,1.5,1.4,3.8ZM40.6,15.3c-.4,2.2-.2,3.4.6,3.5.8.1,1.3-.9,1.7-3,.4-2.2.2-3.4-.6-3.5-.8-.1-1.3.9-1.7,3h0Z"/>
      <path class="st4" d="M46.6,14.1c0-.2,0-.5-.2-.7.1-.3.4-.4.7-.3.3.1.4.4.3.8-.3.8-.9,1-1.6,1.2v-.2c.4-.2.7-.4.8-.7h0Z"/>
      <path class="st4" d="M51.1,16.2c-.2-.3-.4-.5-.7-.7-.5-.3-1-.2-1.4.3-.4.6-.3,1.2,0,2.2.3,1.2.3,1.8-.1,2.5-.5.9-1.4,1.1-2.3.5-.3-.2-.7-.6-.9-1h.1c.2.3.5.6.8.8.5.3,1,.3,1.4-.3.4-.6.4-1.1,0-2.1-.2-1-.3-1.8.2-2.5.5-.9,1.5-1,2.3-.5.3.2.6.5.8.8h-.1Z"/>
    </g>
    <g>
      <path class="st4" d="M20.9,44.3l-4,1.7-.2-.5,3.5-1.5-3.9.5h0c0,0,2.9-2.5,2.9-2.5l-3.3,1.4h0c0-.1,3.6-1.6,3.6-1.6l.3-.2.2.5-2.7,2.2,3.4-.4.2.5h0Z"/>
      <path class="st4" d="M18.8,48.9l-1-1.6,3.6-2.3,1,1.5h-.1c0,0-.7-1-.7-1l-1.6,1,.5.8h-.1c0,0-.5-.8-.5-.8l-1.7,1.1.7,1.2h-.1c0,0,0,0,0,0Z"/>
      <path class="st4" d="M23.3,47.7c.7.8.5,1.7-.6,2.6-1,.9-2,1-2.7.2l-.5-.6,3.3-2.8s.5.7.6.6ZM20.1,50.4c.5.6,1.3.3,2.2-.5,1-.9,1.3-1.6.9-2.1l-.2-.2-3.1,2.6s.2.2.2.2Z"/>
      <path class="st4" d="M22,52.6l2.9-3.1.4.4-2.9,3.1-.4-.4Z"/>
      <path class="st4" d="M27.7,51.7h0c0,0-.8-.5-.8-.5l-2.5,3.3-.4-.3,2.5-3.3-.8-.6h0c0,0,2,1.4,2,1.4h0Z"/>
      <path class="st4" d="M27.7,56.7l-1.7-.9,2.1-3.7,1.5.9h0c0,0-1.1-.5-1.1-.5l-.9,1.7.9.5h0c0,0-.9-.4-.9-.4l-1,1.8,1.2.7h0c0,0,0,0,0,0Z"/>
      <path class="st4" d="M30.8,58l-.5-.2.2-1.5c0-.5,0-.8-.3-.8h-.2c0,0-.8,1.9-.8,1.9l-.5-.2,1.6-4,.8.3c.7.3.9.8.6,1.3-.2.6-.8.8-1.3.7.4.2.5.5.5,1,0,0-.2,1.4-.2,1.4ZM30.1,55.3h.2c.3.2.7,0,.9-.6.2-.5.2-.9-.2-1.1h-.2c0,0-.7,1.7-.7,1.7h0Z"/>
      <path class="st4" d="M34.2,58.8h-.6c0-.1,0-1.6,0-1.6,0-.5-.1-.8-.4-.8h-.2s-.5,2-.5,2h-.5c0-.1,1-4.3,1-4.3l.9.2c.8.2,1,.7.8,1.2-.2.7-.7.9-1.2.8.4.2.6.5.6,1v1.4s0,0,0,0ZM33,56.2h.2c.4.1.7,0,.8-.8.1-.5,0-1-.4-1.1h-.2c0,0-.4,1.8-.4,1.8Z"/>
      <path class="st4" d="M36.6,57.6h-1c0,0-.5,1.3-.5,1.3h-.1l1.3-3.9v-.3s.5,0,.5,0l.6,4.3h-.6s-.2-1.5-.2-1.5h0ZM36.6,57.5l-.3-2.2-.7,2.1s1,0,.9,0Z"/>
      <path class="st4" d="M40.5,54.8l.2,4.3h-.6s-1.6-3.5-1.6-3.5l.2,3.6h-.1l-.2-3.9-.2-.4h.6s1.8,3.8,1.8,3.8l-.2-3.9h.1,0Z"/>
      <path class="st4" d="M44.1,58.5l-1.9.4-.8-4.2,1.8-.3h0c0,.1-1.2.4-1.2.4l.4,1.9,1-.2h0c0,.1-1,.3-1,.3l.4,2,1.3-.3s0,.1,0,.1Z"/>
      <path class="st4" d="M45.8,56.4l-1,.3.2,1.5h-.1s-.4-4-.4-4l-.2-.2.5-.2,2.3,3.8-.5.2-.8-1.3h0ZM45.8,56.3l-1.1-1.9.2,2.2.9-.3h0Z"/>
      <path class="st4" d="M48.2,52.2l2,3.8-.5.3-2.9-2.6,1.6,3.2h-.1c0,0-1.8-3.4-1.8-3.4l-.3-.3.5-.3,3.2,2.8-1.8-3.5h.1Z"/>
      <path class="st4" d="M54.3,50.2l1.3,1.4c-.2.5-.5.9-.9,1.2-1,.9-2.2,1-3.2,0-1-1.2-.7-2.5.3-3.3.3-.3.7-.5,1.1-.6h0c-.4.2-.7.4-1,.7-.8.8-.9,1.8,0,2.8.9,1,1.9,1.1,2.7.4.3-.2.5-.5.6-.7l-1.2-1.4-.5.5h0c0,0,.9-.9.9-.9h0Z"/>
      <path class="st4" d="M58,48.8l-.4.5-1.3-.6c-.5-.2-.7-.2-.9,0v.2c-.1,0,1.6,1.3,1.6,1.3l-.3.4-3.4-2.6.5-.7c.5-.6,1-.6,1.5-.2.5.4.5,1,.3,1.4.3-.3.7-.3,1.1-.2l1.3.6h0ZM55.2,48.8l.2-.2c.2-.3.1-.7-.4-1.1-.4-.3-.8-.5-1.1,0l-.2.2,1.5,1.2h0Z"/>
      <path class="st4" d="M58.6,47.9l-3.7-2.2.3-.5,3.7,2.2-.3.5Z"/>
      <path class="st4" d="M60.4,44.5l-.8,1.7-3.9-1.8.2-.5,3.8,1.8.6-1.2s0,0,.1,0Z"/>
      <path class="st4" d="M61.4,41.7l-.6,1.8-4.1-1.3.2-.5,4,1.3.4-1.3h.1s0,0,0,0Z"/>
    </g>
  </g>
  <g id="olive">
    <g>
      <g>
        <ellipse class="st2" cx="42.8" cy="37.3" rx="10.1" ry="8" transform="translate(-11.4 54.1) rotate(-58.3)"/>
        <path class="st3" d="M46,27.8c-.2,1-.3,5.5,5,4.6"/>
      </g>
      <g>
        <ellipse class="st1" cx="34.2" cy="33.7" rx="8" ry="10.1" transform="translate(-11.8 47.5) rotate(-61.2)"/>
        <path class="st3" d="M24.7,31c1.1.2,4.8-.7,4.2-5.2"/>
      </g>
    </g>
  </g>
</svg>